<?xml version="1.0" encoding="utf-8"?>
<!-- Generator: Adobe Illustrator 24.0.2, SVG Export Plug-In . SVG Version: 6.00 Build 0)  -->
<svg version="1.1" id="Layer_1" xmlns="http://www.w3.org/2000/svg" xmlns:xlink="http://www.w3.org/1999/xlink" x="0px" y="0px"
	 viewBox="0 0 260.4 173.1" style="enable-background:new 0 0 260.4 173.1;" xml:space="preserve">
<style type="text/css">
	.st0{fill-rule:evenodd;clip-rule:evenodd;fill:#FFFFFF;}
</style>
<title>logos_regua-</title>
<g>
	<path class="st0" d="M116.4,89.1l-0.3-0.4l-0.8,0.4c-0.4,1.4-3.9,5.7-4.7,6.9c-3.5,4.2-7.6,7.9-12.2,11c-13.4,9.2-30,12.5-45.9,9.1
		c-11.2-2.6-21.4-8.4-29.4-16.8C9,85.1,9.6,73.5,7.4,69c-1.5,2.6-2.3,12.2-2.3,15.9C4.6,99.6,9,114,17.7,125.8
		c23.9,33,68.8,38.7,98.8,14.2c10.2-8.1,18-18.9,22.6-31.1c1-3,0.3-3.4-1-6.4c-0.6-2.1-1.5-4.2-2.6-6h-19.3l-5.9,14.4h-2.5
		C107.7,109.8,115.4,90.8,116.4,89.1"/>
	<path class="st0" d="M88.4,93.2c-10.2-0.1-20-4.4-27.1-11.7c-2.1-2.1-4-4.5-5.7-7.1c-7.6-12.5-7.4-28.1,0.4-40.3
		c4.7-7.7,11-11.7,18.7-15.6c-3.7-1.3-14.7,1-18.5,2c-5,1.4-10,3.4-14.6,5.9c-2.3,1.3-4.7,2.3-5.9,4.5c-1.3,2.1-2.4,4.4-3.4,6.7
		c-8.9,22.3,0.1,47.8,21,59.5c15.9,9.2,35.5,8.7,50.9-1.3c6.9-4.5,16.3-14.2,19.3-24.3c-1,0.6-2.3,2-4.9,3.7
		c-13.7,8.7-32.8,0.4-36-15.6C80,46.8,88.3,34.4,101,32c0.9-0.1,1.8-0.3,2.8-0.4c7.7-0.6,8.9,1.3,13.6,2.6c-0.6-1.3-2.8-2.4-4-3.4
		c-4.2-3-8.7-5.5-13.4-7.7c-3.7-1.6-18.1-6-22.7-4.7c-13.5,4.7-23.1,16.5-24.8,30.6c-2,15.4,5.8,29.2,18,36.9
		c9.1,5.9,22.9,7.3,33.6,3c4.7-1.8,7.6-4.3,9.1-4.9c-2,2.3-7.1,4.9-10.6,6.3C98.1,92.4,93.2,93.3,88.4,93.2"/>
	<path class="st0" d="M115.4,88.9c0.3-0.5,0.6-0.9,0.8-1.4l0.4-0.6l0.4-0.4c0.6-2,2.3-3.7,2.6-5.9c-1,1-1.6,2.4-2.6,3.7
		c-14.6,20-42.2,27.3-64.3,15.2c-10.3-5.7-19-14-23.6-25.3c-4.7-11.6-4.8-24.4-0.4-36c0.4-1.3,1.4-3,1.6-4c-3,1.3-11.7,12-14,15.2
		c-2.6,3.9-7.1,10.3-6.6,15.5c4.3,41.6,54.6,66.5,91.6,38.9C104.8,101.1,113.5,92.4,115.4,88.9"/>
	<path class="st0" d="M85.2,58.2c1.9,11.3,12.6,19,23.9,17.3c11.3-1.9,19-12.6,17.3-23.9c-1.9-11.2-12.4-19-23.7-17.3
		C91.4,36.3,83.7,46.9,85.2,58.2"/>
	<path class="st0" d="M175.7,61.7c-2,2.3-2,3-4.7,4.7c-2.4,1.4-5.3,1.8-7.9,1c-4.7-1.3-7.9-5.3-7.7-11.2l23.3,0.3
		c0,3.7,1.3,7.1,3.7,9.8c3.9,3.9,4.9,3,8.9,4.3v40.6h2.6V70.7c1-0.8,3.3-1,5-2c3.3-2,2.3-2.6,3.4-3v4.5h2.6l-0.3-27l-2.4,0.3v4.3
		l-1-0.8c-3.5-3.9-9.2-5.3-14.2-3.4c-5.3,1.8-7.6,6.6-8.6,11.3c-1.3-7.1-5-12-12.7-12c-15.8-0.3-17.4,23.1-4.5,27.3
		c7.1,2.4,15.4-2,16.4-6.7L175.7,61.7z M155.4,53.8c0.6-5.3,5.2-9.3,10.6-9.3c5.3,0.1,9.6,4,10.2,9.3H155.4z M189.3,44.9
		c15.2-3.4,17.6,19.9,5.3,22.7C179.5,70.9,176.7,48,189.3,44.9"/>
	<path class="st0" d="M126.7,43.3c2.6,5,3.7,10.8,2.6,16.4c-0.8,4.3-2.6,6.3-2.6,7.3c0,1,2.3,5.9,2.6,7.3c2,4.9,3.9,9.3,5.9,14.2
		c1.8,4.3,3.7,10,5.7,14c1.4-3.9,1.8-11.6,1.8-16c-0.1-5.4-0.8-10.8-1.9-16.3c2.3,0.1,4.7-0.1,6.9-0.8c1.6-0.8,3.2-1.6,4.7-2.6v-3.4
		c-1.6,1.3-2.3,2.4-5,3.7c-1.5,0.6-6.3,2-7.3,0.3c-1.8-4.7-3.7-9.2-5.9-13.6c-1.3-2-2-2.3-0.4-4.3c2-3,5.5-4.7,9.1-4.5
		c5.7,0,7.6,3.3,9.3,4v-3.4c-5-4.2-12.1-4.4-17.4-0.6c-0.8,0.4-1.5,0.9-2,1.6c-0.4,0.8-1,1.3-1.6,1.8c-0.8-0.9-1.4-1.8-2-2.6
		C128.2,44.9,127.5,44.1,126.7,43.3"/>
	<path class="st0" d="M210,46.7l-0.3-4h-2.6v27l2.6,0.3c0.6-8.3-2.8-24.6,7.1-25c6.3-0.4,7.3,3.3,7.3,8.9c0,5.3-0.3,10.7,0,15.8
		l2.6,0.3l0.3-9.7c0.3,3.4,6,11.2,15.2,10.2c7.1-0.6,12.6-6.7,12.6-13.7c0.3-12.6-13.7-18.1-22.3-11.7c-3,2.3-3.7,3.4-5.4,7.7
		c-0.6-4.9-1.3-8.7-5.9-10C215.6,41.1,212.4,43.5,210,46.7 M238,45c14.7-3.7,20,19.3,5.4,22.6C228,71.1,223.8,48.4,238,45"/>
	<path class="st0" d="M147,108.4c0.8-1.4,14.2-15.9,16.3-18.3c0.8-1.3,4.9-5,5.3-6h-23.9v2.4h18.3c-0.6,1-9.6,10.6-10.7,12.2
		c-0.9,1-1.9,2-2.8,3l-5.5,5.9c-1.4,1.6-0.4,3.3,0.8,3.3c7.3,0,16.9,0.3,23.9-0.3v-2.5L147,108.4z"/>
	<path class="st0" d="M117.1,93.8h17l-8.3-20.7c0,0,0-0.3-0.3-0.3L117.1,93.8z"/>
	<path class="st0" d="M169.4,83.8c-0.3,5.7-0.3,13,0,18.7c0.3,5.7,3.7,8.9,9.7,8.9c6,0,9.3-3.3,9.7-8.9c0.4-5.7,0.3-12.7,0-18.7
		h-2.6c-0.3,5.3,0.3,10.7,0,16c-0.3,5.7-1.3,9.1-7.1,9.1c-2.6,0-4.9-0.8-5.7-2.4c-2.3-4.3-1.4-17.4-1.4-22.7L169.4,83.8z"/>
	<path class="st0" d="M115.4,88.9v0.3l0.8-0.4l0.3,0.4c0.6-0.8,0,0.6,0.6-1l0.3-0.8c0.3-1,0.3-0.6,0-1.3c-0.3,0.3-0.3,0-0.4,0.4
		c0,0-0.3,0.6-0.4,0.6C116,87.7,115.7,88.4,115.4,88.9"/>
</g>
</svg>
