<?xml version="1.0" encoding="utf-8"?>
<!-- Generator: Adobe Illustrator 24.0.2, SVG Export Plug-In . SVG Version: 6.00 Build 0)  -->
<svg version="1.1" id="Layer_1" xmlns="http://www.w3.org/2000/svg" xmlns:xlink="http://www.w3.org/1999/xlink" x="0px" y="0px"
	 viewBox="0 0 619 552.1" style="enable-background:new 0 0 619 552.1;" xml:space="preserve">
<style type="text/css">
	.st0{fill:#969696;}
</style>
<title>logos_regua-</title>
<g>
	<path class="st0" d="M120.6,320.8l-1.8,0.9c-6.9,3.5-14.5,5.3-22.2,5.2c-10.3,0.4-20.3-3.5-27.6-10.5c-7.3-7-10.9-16.7-10.9-29
		c0-8.2,1.5-16.4,4.6-24.1c2.9-7.4,7-14.3,12.3-20.3c4.3-4.9,9.4-9.1,15.1-12.4c1.1-0.6,2-1.2,3-1.6c7-3.4,14.8-5.2,22.6-5.2
		c8.3-0.4,16.6,1.9,23.7,6.4c6.6,4.7,11.8,11,15.1,18.3l46.2-24.7c-5.6-14.5-15.6-27-28.6-35.6c-13.2-8.8-29.7-13.2-49.5-13.2
		c-16.5-0.2-32.9,2.9-48.1,9.4l-1.9,0.8c-14.4,6.4-27.3,15.5-38.1,26.6c-10.3,10.8-18.4,23.4-23.9,37.1c-5.5,13.3-8.3,27.7-8.4,42.3
		C2,303,4.3,314.9,8.9,325.9c4.3,10.1,10.8,19.2,18.9,26.6c8.3,7.5,18.1,13.2,28.8,17c11.8,4.1,24.2,6.1,36.8,5.9
		c18.4,0,34.1-3.4,47.1-10.1c11.7-6,22.2-13.9,31.3-23.5c0.8-0.8,1.6-1.6,2.3-2.6l-36.2-31.8C132.6,312.6,126.9,317.1,120.6,320.8z"
		/>
	<polygon class="st0" points="565.8,178.7 537,285.9 487.2,178.7 437.4,178.7 426.5,219.4 385.7,371.5 438.8,371.5 468.5,260.6 
		482.2,289.8 520.5,371.5 567.2,371.5 619,178.7 	"/>
	<path class="st0" d="M374.9,256.4c7.6-8.7,11.7-19.9,11.4-31.4c0-6-1.2-11.9-3.4-17.4c-2.5-5.9-6.4-11-11.6-14.9
		c-6.4-4.8-13.7-8.3-21.4-10.2c-10.9-2.7-22-4-33.3-3.7h-80l-51.8,192.7h99.9c13.1,0.2,26.1-1.3,38.8-4.6
		c9.8-2.5,19.1-6.7,27.4-12.4c6.8-4.8,12.4-11.1,16.2-18.6c3.4-7.1,5.2-15.1,5.2-23.1c0.4-8.8-2.6-17.4-8.1-24.4
		c-5.6-6.6-12.9-11.4-21.1-14.2C356.6,271,367.3,265,374.9,256.4z M288.6,330.7h-40.5l11-42.2H296c15.8,0,22.7,8.8,22.7,18.7
		C318.8,313.4,315.1,330.7,288.6,330.7z M304.3,256.7h-36.1l9.4-36.6h33.3c20,0,22.7,10,22.7,16.2
		C333.4,241.1,332.4,256.7,304.3,256.7L304.3,256.7z"/>
</g>
</svg>
