<?xml version="1.0" encoding="utf-8"?>
<!-- Generator: Adobe Illustrator 24.0.2, SVG Export Plug-In . SVG Version: 6.00 Build 0)  -->
<svg version="1.1" id="Layer_1" xmlns="http://www.w3.org/2000/svg" xmlns:xlink="http://www.w3.org/1999/xlink" x="0px" y="0px"
	 viewBox="0 0 146 109" style="enable-background:new 0 0 146 109;" xml:space="preserve">
<style type="text/css">
	.st0{fill-rule:evenodd;clip-rule:evenodd;fill:#FFFFFF;}
	.st1{fill:#FFFFFF;}
</style>
<title>logos_regua-</title>
<path class="st0" d="M7.9,67.3v-1.3c0-0.3,0.1-0.4,0.1-0.7c0.3-2,0.4-4.1,0.8-6.1c4.1-19,22.7-31,41.7-27c0.6,0.2,1.2,0.3,1.9,0.4
	C62,35.2,69.2,41,74.1,49.5c0.1,0.2,0.3,0.4,0.4,0.6h0.2v-0.6c0-5,0-10.1,0-15.1c0-0.7,0.2-0.8,0.9-0.8c6.4,0,12.7,0,19.2,0
	c0.4,0,0.9,0.2,1.2,0.6c7.1,9.8,14.3,19.5,21.5,29.3c0.2,0.3,0.4,0.4,0.5,0.7l0.2-0.1V34.5c0-0.9,0-0.9,0.8-0.9h18.4
	c0.9,0,0.9,0,0.9,0.9v64.2c0,0.9,0,0.9-0.9,0.9c-5.9,0-11.8,0-17.6,0c-0.5,0-1-0.2-1.2-0.6C110.7,88.4,103,78,95.4,67.4
	c-0.2-0.2-0.3-0.4-0.4-0.5L94.7,67v31.7c0,0.9,0,0.9-0.9,0.9c-6.1,0-12.3,0-18.5,0c-0.8,0-0.8,0-0.8-0.9V83
	c-0.2,0.1-0.4,0.3-0.4,0.4c-2.6,4.7-6.1,8.7-10.5,11.9c-5.6,4.1-12.3,6.3-19.2,6.5c-7.8,0.2-15.5,0-23.3,0c-0.3,0-0.5,0-0.8,0V101
	c0-2.3,0-4.6,0-7c0-0.4-0.2-0.8-0.5-1.2c-1.5-1.4-2.9-2.9-4.3-4.5c-4.2-5.3-6.7-11.6-7.3-18.2C8.1,69.2,8,68.2,7.9,67.3z M20.2,66.7
	c0.1,0.8,0.1,2.1,0.4,3.5c2.1,11.7,12.9,19.7,24.7,18.4c12.4-1.3,21.3-12.5,20-24.9c0-0.3-0.1-0.4-0.1-0.7
	c-0.6-4.7-2.9-9.3-6.4-12.7c-1-1.1-2.4-1.5-3.8-1.2c-1.6,0.3-2.9,1.4-3.4,2.9c-0.5,1.6-0.1,3.3,1.1,4.5c3.1,3.1,4.5,7.5,3.8,11.9
	c-1.2,7.6-8.3,12.7-15.8,11.5C34,78.8,29.1,73.1,29,66.4c-0.1-3.7,1.3-7.3,4-9.9c1.8-1.7,1.8-4.5,0.1-6.2l0,0
	c-1.7-1.7-4.5-1.7-6.1,0l-0.1,0.1C22.5,54.8,20.3,60,20.2,66.7z M47.2,51.3v-6.8c0.1-2.4-1.7-4.5-4.2-4.6c-2.4-0.1-4.5,1.7-4.6,4.2
	c0,0.1,0,0.3,0,0.4c0,4.5,0,8.9,0,13.4c0,2.4,2,4.4,4.4,4.4s4.4-2,4.4-4.4l0,0L47.2,51.3z"/>
<path class="st1" d="M35.6,24.4l-1.7-4.1h-7.8l-1.7,4.1h-4L28.2,6h3.7l7.8,18.4H35.6z M30,10.9l-2.4,6h4.8L30,10.9z"/>
<path class="st1" d="M55.8,22.8c-0.5,0.4-1.1,0.7-1.6,1.1c-0.6,0.3-1.2,0.5-2,0.6c-0.8,0.2-1.6,0.3-2.4,0.3c-1.2,0-2.6-0.3-3.7-0.7
	c-1.1-0.4-2.1-1.2-2.9-2c-0.8-0.9-1.5-1.9-2-3s-0.7-2.4-0.7-3.7v-0.1c0-1.2,0.3-2.5,0.7-3.7c0.9-2.2,2.7-4.1,4.9-5
	c1.2-0.5,2.5-0.8,3.8-0.8c0.8,0,1.6,0.1,2.3,0.2c0.6,0.1,1.3,0.4,2,0.5c0.5,0.3,1.1,0.5,1.6,0.9c0.4,0.4,0.9,0.7,1.3,1.2l-2.6,2.9
	c-0.6-0.6-1.4-1.1-2.1-1.5c-0.8-0.4-1.6-0.5-2.5-0.5c-0.7,0-1.4,0.2-2.1,0.4c-0.6,0.4-1.2,0.7-1.7,1.2S45.3,12.4,45,13
	c-0.3,0.7-0.4,1.4-0.4,2.2v0.1c0,0.7,0.1,1.5,0.4,2.2c0.3,0.6,0.6,1.2,1.1,1.8c1,1.2,2.3,1.8,3.8,1.8c0.9,0,1.9-0.2,2.7-0.5
	c0.8-0.4,1.5-1,2.1-1.6l2.6,2.6C56.9,21.9,56.3,22.4,55.8,22.8z"/>
<path class="st1" d="M59.4,24.4V6.1h4v18.3H59.4z"/>
<path class="st1" d="M82.7,18.9c-0.4,1.1-1.2,2-2,2.9c-0.9,0.8-2,1.4-3.1,1.9c-1.2,0.4-2.6,0.7-3.9,0.7h-7.1V6.1h7.1
	c1.3,0,2.7,0.2,3.9,0.7c1.2,0.4,2.2,1.1,3.1,2c0.9,0.8,1.5,1.8,2,2.9c0.4,1.2,0.7,2.3,0.7,3.6v0.1C83.4,16.6,83.2,17.7,82.7,18.9z
	 M79.2,15.3c0-0.8-0.1-1.5-0.4-2.2c-0.3-0.6-0.6-1.2-1.2-1.8c-0.4-0.5-1.1-0.9-1.7-1.2c-0.7-0.3-1.5-0.4-2.2-0.4h-3.1v11h3.1
	c0.8,0,1.5-0.1,2.2-0.4c0.6-0.3,1.2-0.6,1.7-1.2c0.4-0.5,0.9-1.1,1.2-1.7C79.1,16.8,79.2,16.1,79.2,15.3L79.2,15.3z"/>
<path class="st1" d="M99.3,24.4l-1.7-4.1h-7.7l-1.7,4.1h-4.1L92,6h3.7l7.8,18.4H99.3z M93.8,10.9l-2.4,5.9h4.8L93.8,10.9z"/>
<path class="st1" d="M121.1,18.9c-0.4,1.1-1.2,2-2,2.9c-0.9,0.8-2,1.4-3.1,1.9c-1.2,0.4-2.6,0.7-3.9,0.7H105V6.1h7.1
	c1.3,0,2.7,0.2,3.9,0.7c1.2,0.4,2.2,1.1,3,2c0.9,0.8,1.5,1.8,2,2.9c0.4,1.2,0.7,2.3,0.7,3.6v0.1C121.8,16.6,121.6,17.7,121.1,18.9z
	 M117.6,15.3c0-0.8-0.2-1.5-0.4-2.2c-0.3-0.6-0.6-1.2-1.2-1.8c-0.4-0.5-1.1-0.9-1.7-1.2c-0.7-0.3-1.5-0.4-2.2-0.4H109v11h3.1
	c0.8,0,1.5-0.1,2.2-0.4c0.6-0.3,1.2-0.6,1.7-1.2c0.4-0.5,0.9-1.1,1.2-1.7C117.5,16.8,117.6,16.1,117.6,15.3L117.6,15.3z"/>
<path class="st1" d="M124.1,24.4V6.1h13.7v3.6H128v3.7h8.6V17H128v3.8h9.9v3.6H124.1z"/>
</svg>
