<?xml version="1.0" encoding="utf-8"?>
<!-- Generator: Adobe Illustrator 24.0.2, SVG Export Plug-In . SVG Version: 6.00 Build 0)  -->
<svg version="1.1" id="Layer_1" xmlns="http://www.w3.org/2000/svg" xmlns:xlink="http://www.w3.org/1999/xlink" x="0px" y="0px"
	 viewBox="0 0 156 121" style="enable-background:new 0 0 156 121;" xml:space="preserve">
<style type="text/css">
	.st0{fill-rule:evenodd;clip-rule:evenodd;fill:#FFFFFF;}
	.st1{fill:#FFFFFF;}
</style>
<g>
	<rect x="20.9" y="105.5" class="st0" width="115.3" height="0.5"/>
	<rect x="20.8" y="86.6" class="st0" width="115.4" height="0.5"/>
	<g>
		<path class="st0" d="M34,63.4c-2.8,0-5.3-0.4-7.6-1.2c-2.3-0.9-4.3-2-6-3.5c-1.7-1.5-3-3.3-3.9-5.5c-0.9-2.1-1.4-4.5-1.4-7.2
			c0-3,0.6-5.9,1.7-8.8c1.2-2.9,2.8-5.4,4.9-7.7c2.1-2.3,4.8-4.1,7.8-5.5c3.1-1.4,6.5-2,10.4-2c4.1,0,7.5,0.9,10.2,2.7
			c2.7,1.8,4.7,4.3,6,7.3l-9.5,5.1c-0.8-1.6-1.9-2.9-3.1-3.7c-1.3-0.9-2.9-1.4-4.9-1.4c-1.7,0-3.2,0.3-4.7,1.1
			c-1.4,0.7-2.7,1.7-3.7,2.9c-1,1.2-1.9,2.6-2.6,4.2c-0.6,1.6-0.9,3.2-0.9,5c0,2.6,0.8,4.5,2.2,6c1.5,1.4,3.4,2.2,5.7,2.2
			c1.8,0,3.3-0.3,4.6-1c1.4-0.7,2.6-1.7,3.9-3l7.5,6.6c-2,2.2-4.3,4-7,5.4C41,62.7,37.8,63.4,34,63.4"/>
		<path class="st0" d="M77.7,38.9c5.8,0,6-3.2,6-4.3c0-1.3-0.6-3.3-4.7-3.3h-6.9l-2,7.6H77.7z M74.5,54.2c5.4,0,6.2-3.6,6.2-4.8
			c0-2-1.4-3.9-4.7-3.9h-7.7L66,54.1L74.5,54.2L74.5,54.2z M63.7,22.8h16.6c2.7,0,5,0.3,6.9,0.8s3.3,1.2,4.4,2.1
			c1.1,0.9,1.9,2,2.4,3.1c0.5,1.2,0.7,2.4,0.7,3.6c0,2.6-0.8,4.7-2.4,6.5s-3.7,3-6.5,3.7c1.8,0.7,3.2,1.6,4.3,2.9s1.7,3,1.7,5
			c0,1.7-0.3,3.3-1.1,4.8c-0.7,1.4-1.9,2.7-3.3,3.8c-1.5,1.1-3.4,2-5.7,2.6c-2.3,0.6-4.9,0.9-8,0.9H52.9L63.7,22.8z"/>
		<polygon class="st0" points="105.2,22.8 115.5,22.8 125.8,45 131.8,22.8 142.8,22.8 132,62.7 122.3,62.7 111.6,39.7 105.5,62.7 
			94.5,62.7 		"/>
	</g>
	<g>
		<g>
			<path class="st1" d="M41.5,111.6c-0.8,0-1.1,0.3-1.1,0.7c0,0.3,0.2,0.4,0.5,0.7c0.3,0.2,0.8,0.4,1.3,0.6c0.5,0.3,0.9,0.5,1.4,0.8
				c0.5,0.3,0.9,0.7,1.3,1.3c0.3,0.5,0.5,1.1,0.5,1.8c0,1.1-0.3,2-1.1,2.6c-0.8,0.6-1.8,0.9-3.1,0.9c-1.4,0-2.8-0.3-3.9-0.9v-2.6
				c1.5,0.7,2.8,1,3.8,1c0.9,0,1.3-0.3,1.3-0.8c0-0.3-0.2-0.5-0.5-0.8s-0.8-0.5-1.3-0.7c-0.5-0.2-0.9-0.5-1.4-0.8
				c-0.5-0.3-0.9-0.7-1.3-1.2s-0.5-1.1-0.5-1.9c0-1.1,0.4-2,1.2-2.6c0.8-0.6,1.8-0.9,3-0.9c1.3,0,2.6,0.3,3.7,0.9v2.7h-1.7
				C43.4,111.9,42.7,111.6,41.5,111.6z"/>
			<path class="st1" d="M51.2,119.6l-1,0.9c-0.4,0.3-0.9,0.4-1.5,0.4c-0.8,0-1.4-0.3-1.8-0.7c-0.4-0.4-0.7-1-0.7-1.6
				c0-0.4,0.1-0.8,0.3-1.1c0.2-0.3,0.3-0.6,0.7-0.8c0.3-0.2,0.5-0.3,0.8-0.4c0.3-0.1,0.5-0.2,0.8-0.3l2.6-0.5v-0.3
				c0-0.3-0.1-0.7-0.3-0.9c-0.3-0.3-0.6-0.3-1-0.3c-0.4,0-0.9,0.1-1.2,0.2c-0.3,0.1-0.9,0.3-1.4,0.5l-0.3-0.3l0.7-1.8
				c0.9-0.3,1.9-0.5,2.9-0.5c1.1,0,2,0.3,2.6,0.7c0.6,0.4,0.9,1.1,0.9,2v3.2c0,0.3,0,0.4,0,0.5c0,0.1,0.1,0.2,0.2,0.2
				c0.1,0.1,0.3,0.1,0.6,0.1v2c-0.6,0.1-1.2,0.2-1.8,0.2C51.9,121,51.2,120.6,51.2,119.6z M48.7,111.5h-1.3c0-0.8,0.2-1.4,0.5-1.8
				c0.3-0.5,0.8-0.8,1.4-0.8c0.4,0,0.9,0.2,1.4,0.4c0.6,0.3,0.9,0.4,1.1,0.4c0.3,0,0.6-0.3,0.7-0.7h1.2c-0.1,1.7-0.6,2.6-1.6,2.6
				c-0.3,0-0.9-0.2-1.4-0.4c-0.6-0.3-1-0.4-1.2-0.4c-0.1,0-0.2,0-0.3,0c-0.1,0-0.2,0.1-0.3,0.2C48.8,111.1,48.7,111.3,48.7,111.5z
				 M51.2,116.9l-1.4,0.4c-0.2,0.1-0.3,0.2-0.4,0.3c-0.1,0.1-0.2,0.3-0.2,0.5c0,0.3,0.1,0.4,0.3,0.6c0.2,0.2,0.3,0.2,0.6,0.2
				c0.4,0,0.8-0.2,1.1-0.5V116.9z"/>
			<path class="st1" d="M63.2,119.8c-0.8,0.8-1.8,1.2-3.1,1.2s-2.5-0.4-3.1-1.2c-0.8-0.8-1.1-1.9-1.1-3.2c0-1.4,0.3-2.5,1.1-3.2
				c0.8-0.8,1.8-1.2,3.1-1.2c1.4,0,2.5,0.4,3.1,1.2c0.8,0.8,1.1,1.9,1.1,3.2S63.9,119,63.2,119.8z M61,114.7c-0.2-0.4-0.5-0.7-1-0.7
				c-0.5,0-0.9,0.3-1,0.7c-0.2,0.4-0.3,1.1-0.3,1.9c0,0.9,0.1,1.4,0.3,1.9c0.2,0.4,0.5,0.7,1,0.7c0.5,0,0.9-0.3,1-0.7
				c0.2-0.4,0.3-1.1,0.3-1.9C61.4,115.7,61.2,115.1,61,114.7z"/>
			<path class="st1" d="M74,121c-1.9,0-3.1-0.5-4-1.4c-0.9-0.9-1.3-2.5-1.3-4.5c0-2,0.4-3.5,1.3-4.5c0.9-0.9,2.2-1.4,4-1.4
				c1.2,0,2.4,0.3,3.6,0.9v2.7h-1.7c0-0.8-0.6-1.1-1.9-1.1c-0.4,0-0.9,0.1-1.1,0.3c-0.3,0.2-0.5,0.4-0.7,0.8s-0.3,0.7-0.3,1.1
				c-0.1,0.4-0.1,0.9-0.1,1.4c0,0.6,0,1,0.1,1.4s0.2,0.8,0.3,1.1c0.2,0.3,0.3,0.6,0.7,0.8c0.3,0.2,0.7,0.3,1.1,0.3
				c1.3,0,2.6-0.3,3.7-1l-0.2,2.6C76.4,120.7,75.2,121,74,121z"/>
			<path class="st1" d="M83.5,119.6l-1,0.9c-0.4,0.3-0.9,0.4-1.5,0.4c-0.8,0-1.4-0.3-1.8-0.7c-0.4-0.4-0.7-1-0.7-1.6
				c0-0.4,0.1-0.8,0.3-1.1c0.2-0.3,0.3-0.6,0.7-0.8c0.3-0.2,0.5-0.3,0.8-0.4c0.3-0.1,0.5-0.2,0.8-0.3l2.6-0.5v-0.3
				c0-0.3-0.1-0.7-0.3-0.9c-0.3-0.3-0.6-0.3-1-0.3c-0.4,0-0.9,0.1-1.2,0.2c-0.3,0.1-0.9,0.3-1.4,0.5l-0.3-0.3l0.7-1.8
				c0.9-0.3,1.9-0.5,2.9-0.5c1.1,0,2,0.3,2.6,0.7c0.6,0.4,0.9,1.1,0.9,2v3.2c0,0.3,0,0.4,0,0.5c0,0.1,0.1,0.2,0.2,0.2
				c0.1,0.1,0.3,0.1,0.6,0.1v2c-0.6,0.1-1.2,0.2-1.8,0.2C84.2,121,83.6,120.6,83.5,119.6z M83.5,116.9l-1.4,0.4
				c-0.2,0.1-0.3,0.2-0.4,0.3c-0.1,0.1-0.2,0.3-0.2,0.5c0,0.3,0.1,0.4,0.3,0.6c0.2,0.2,0.3,0.2,0.6,0.2c0.4,0,0.8-0.2,1.1-0.5
				C83.5,118.4,83.5,116.9,83.5,116.9z"/>
			<path class="st1" d="M91.9,114l0.9-1.4c0.5-0.3,1-0.5,1.5-0.5c0.3,0,0.7,0.1,1.1,0.2l-0.9,2.5c-0.3-0.1-0.6-0.1-0.9-0.1
				c-0.6,0-1.1,0.2-1.7,0.5v2.7c0,0.3,0.1,0.6,0.2,0.7c0.2,0.1,0.5,0.2,1.2,0.2v2h-5.1v-2c0.4,0,0.6-0.1,0.7-0.2s0.1-0.3,0.1-0.7
				v-2.7c0-0.2,0-0.3,0-0.4c0-0.1,0-0.2-0.1-0.3s-0.2-0.2-0.3-0.2c-0.1,0-0.3,0-0.5,0v-2h3.7L91.9,114L91.9,114z"/>
			<path class="st1" d="M99.4,108.6v9.4c0,0.2,0,0.3,0,0.4s0,0.2,0.1,0.3c0.1,0.1,0.2,0.2,0.3,0.2c0.1,0,0.3,0,0.5,0v2h-4.6v-2
				c0.4,0,0.6-0.1,0.7-0.2c0.1-0.1,0.1-0.3,0.1-0.7v-5.8c0-0.2,0-0.3,0-0.4c0-0.1,0-0.2-0.1-0.3c-0.1-0.1-0.2-0.2-0.3-0.2
				s-0.3,0-0.5,0v-2l2.9-0.7C98.4,108.6,99.4,108.6,99.4,108.6z"/>
			<path class="st1" d="M108.6,119.8c-0.8,0.8-1.8,1.2-3.1,1.2s-2.5-0.4-3.1-1.2c-0.8-0.8-1.1-1.9-1.1-3.2c0-1.4,0.3-2.5,1.1-3.2
				s1.8-1.2,3.1-1.2s2.5,0.4,3.1,1.2c0.8,0.8,1.1,1.9,1.1,3.2C109.7,117.9,109.3,119,108.6,119.8z M106.4,114.7
				c-0.2-0.4-0.5-0.7-1-0.7s-0.9,0.3-1,0.7c-0.2,0.4-0.3,1.1-0.3,1.9c0,0.9,0.1,1.4,0.3,1.9c0.2,0.4,0.5,0.7,1,0.7s0.9-0.3,1-0.7
				c0.2-0.4,0.3-1.1,0.3-1.9C106.8,115.7,106.7,115.1,106.4,114.7z"/>
			<path class="st1" d="M117.2,115h-1.7c0-0.3-0.1-0.5-0.3-0.7c-0.2-0.1-0.5-0.2-0.9-0.2c-0.4,0-0.7,0.2-0.7,0.4
				c0,0.2,0.2,0.3,0.4,0.4c0.3,0.1,0.6,0.3,0.9,0.4c0.3,0.2,0.8,0.3,1.2,0.5c0.4,0.2,0.8,0.4,1,0.9c0.3,0.3,0.4,0.9,0.4,1.4
				c0,0.9-0.3,1.5-0.9,2s-1.5,0.8-2.6,0.8c-1,0-2-0.2-3.1-0.6l-0.3-2.1c1.2,0.5,2.2,0.8,3,0.8c0.6,0,0.9-0.2,0.9-0.5
				c0-0.2-0.2-0.3-0.4-0.4c-0.3-0.2-0.6-0.3-1-0.5c-0.4-0.2-0.8-0.3-1.2-0.6c-0.4-0.2-0.8-0.5-1-0.9c-0.3-0.4-0.4-0.9-0.4-1.4
				c0-0.9,0.3-1.5,1-2s1.5-0.7,2.5-0.7c1.1,0,2.1,0.2,3.1,0.6C117.2,112.8,117.2,115,117.2,115z"/>
		</g>
	</g>
	<g>
		<g>
			<path class="st1" d="M29.8,80.3l0.2,0.3c0.2,0.3,0.3,0.5,0.4,0.6c0.1,0.1,0.3,0.1,0.8,0.1v2h-3.6l-1.4-3.4
				c-0.1-0.3-0.3-0.4-0.3-0.5c-0.2-0.1-0.3-0.1-0.7-0.1h-0.6v1.1c0,0.2,0,0.3,0,0.4s0,0.2,0.1,0.3c0.1,0.1,0.2,0.2,0.3,0.2
				c0.1,0,0.3,0,0.5,0v2h-4.7v-2c0.4,0,0.6-0.1,0.7-0.2c0.1-0.1,0.1-0.3,0.1-0.7v-5.7c0-0.2,0-0.3,0-0.4s0-0.2-0.1-0.3
				c0-0.1-0.1-0.2-0.2-0.2c-0.1,0-0.3,0-0.5,0v-2h4.9c1.6,0,2.8,0.3,3.5,0.9c0.8,0.6,1.1,1.6,1.1,2.9c0,1.5-0.5,2.6-1.6,3.1V79
				c0.3,0.1,0.5,0.3,0.7,0.4C29.5,79.6,29.6,79.9,29.8,80.3z M24.6,76.9h1c0.6,0,0.9-0.1,1.2-0.3c0.3-0.2,0.3-0.5,0.3-0.9
				c0-0.4-0.1-0.8-0.3-0.9c-0.3-0.2-0.6-0.3-1.2-0.3h-1V76.9z"/>
			<path class="st1" d="M35.7,74.9v5.6c0,0.2,0,0.3,0,0.4c0,0.1,0,0.2,0.1,0.3c0.1,0.1,0.2,0.2,0.3,0.2c0.1,0,0.3,0,0.5,0v2h-4.6v-2
				c0.4,0,0.6-0.1,0.7-0.2c0.1-0.1,0.1-0.3,0.1-0.7v-2.7c0-0.2,0-0.3,0-0.4s0-0.2-0.1-0.3c-0.1-0.1-0.2-0.2-0.3-0.2
				c-0.1,0-0.3,0-0.5,0v-2C31.9,74.9,35.7,74.9,35.7,74.9z M32.4,72.5c0-0.4,0.2-0.7,0.4-0.9c0.3-0.3,0.7-0.4,1.1-0.4
				s0.9,0.2,1.1,0.4c0.3,0.3,0.4,0.6,0.4,0.9c0,0.4-0.2,0.8-0.4,1c-0.3,0.3-0.7,0.3-1.1,0.3c-0.4,0-0.9-0.1-1.1-0.3
				C32.6,73.2,32.4,72.9,32.4,72.5z"/>
			<path class="st1" d="M40.7,76l1-0.9c0.4-0.3,0.9-0.4,1.4-0.4c0.9,0,1.7,0.4,2.2,1.2c0.5,0.8,0.9,1.9,0.9,3.2
				c0,1.4-0.3,2.5-1.1,3.2c-0.7,0.8-1.7,1.2-3,1.2c-0.9,0-1.8-0.2-2.5-0.6l-0.5,0.5h-1.4v-8.7c0-0.2,0-0.3,0-0.4s0-0.2-0.1-0.3
				c-0.1-0.1-0.2-0.2-0.3-0.2c-0.1,0-0.3,0-0.5,0v-2l2.9-0.7h0.9V76z M40.7,77.2v4.5c0.3,0.1,0.7,0.2,1,0.2c0.6,0,0.9-0.3,1.2-0.7
				c0.3-0.4,0.3-1.1,0.3-2c0-1.6-0.5-2.4-1.4-2.4C41.4,76.8,41,76.9,40.7,77.2z"/>
			<path class="st1" d="M55.3,77.9c0,0.5-0.1,1.1-0.3,1.9h-4.9c0.1,0.6,0.3,1,0.7,1.4c0.3,0.3,0.9,0.4,1.4,0.4
				c0.4,0,0.9-0.1,1.4-0.2c0.5-0.2,0.9-0.3,1.2-0.5v2c-0.8,0.4-1.9,0.7-3.2,0.7c-1.4,0-2.6-0.4-3.2-1.2c-0.8-0.9-1.1-1.9-1.1-3.2
				c0-1.4,0.3-2.4,1.1-3.2c0.8-0.9,1.9-1.2,3.2-1.2c1.1,0,2,0.3,2.7,0.8C55,75.9,55.3,76.8,55.3,77.9z M50.1,78.5l2.4-0.2
				c0.1-0.3,0.1-0.4,0.1-0.7c0-0.3-0.1-0.6-0.3-0.8c-0.2-0.2-0.4-0.3-0.7-0.3C50.7,76.6,50.2,77.2,50.1,78.5z"/>
			<path class="st1" d="M60,74.9v5.6c0,0.2,0,0.3,0,0.4c0,0.1,0,0.2,0.1,0.3c0.1,0.1,0.2,0.2,0.3,0.2c0.1,0,0.3,0,0.5,0v2h-4.6v-2
				c0.4,0,0.6-0.1,0.7-0.2c0.1-0.1,0.1-0.3,0.1-0.7v-2.7c0-0.2,0-0.3,0-0.4s0-0.2-0.1-0.3c-0.1-0.1-0.2-0.2-0.3-0.2
				c-0.1,0-0.3,0-0.5,0v-2C56.2,74.9,60,74.9,60,74.9z M56.9,72.5c0-0.4,0.2-0.7,0.4-0.9c0.3-0.3,0.7-0.4,1.1-0.4
				c0.4,0,0.9,0.2,1.1,0.4c0.3,0.3,0.4,0.6,0.4,0.9c0,0.4-0.2,0.8-0.4,1c-0.3,0.3-0.7,0.3-1.1,0.3c-0.4,0-0.9-0.1-1.1-0.3
				C56.9,73.2,56.9,72.9,56.9,72.5z"/>
			<path class="st1" d="M65.7,76.6l0.9-1.4c0.5-0.3,1-0.5,1.5-0.5c0.3,0,0.7,0.1,1.1,0.2l-0.9,2.5c-0.4-0.1-0.7-0.1-1-0.1
				c-0.6,0-1.1,0.2-1.7,0.5v2.7c0,0.3,0.1,0.6,0.2,0.7c0.2,0.1,0.5,0.2,1.2,0.2v2h-5.1v-2c0.4,0,0.6-0.1,0.7-0.2
				c0.1-0.1,0.1-0.3,0.1-0.7v-2.7c0-0.2,0-0.3,0-0.4s0-0.2-0.1-0.3c-0.1-0.1-0.2-0.2-0.3-0.2c-0.1,0-0.3,0-0.5,0v-2h3.7L65.7,76.6
				L65.7,76.6z"/>
			<path class="st1" d="M74.3,82.2l-1,0.9c-0.4,0.3-0.9,0.4-1.5,0.4c-0.8,0-1.4-0.3-1.8-0.7c-0.4-0.4-0.7-1-0.7-1.6
				c0-0.4,0.1-0.8,0.3-1.1c0.2-0.3,0.3-0.6,0.7-0.8c0.3-0.2,0.5-0.3,0.8-0.4s0.5-0.2,0.8-0.3l2.6-0.5v-0.3c0-0.3-0.1-0.7-0.3-0.9
				c-0.3-0.3-0.6-0.3-1-0.3c-0.4,0-0.9,0.1-1.2,0.2c-0.3,0.1-0.9,0.3-1.4,0.5L70.1,77l0.7-1.8c0.9-0.3,1.9-0.5,2.9-0.5
				c1.1,0,2,0.3,2.6,0.7c0.6,0.4,0.9,1.1,0.9,2v3.2c0,0.3,0,0.4,0,0.5c0,0.1,0.1,0.2,0.2,0.2c0.1,0.1,0.3,0.1,0.6,0.1v2
				c-0.6,0.1-1.2,0.2-1.8,0.2C75.1,83.6,74.5,83.2,74.3,82.2z M71.8,74.1h-1.3c0-0.8,0.2-1.4,0.5-1.8c0.3-0.5,0.8-0.8,1.4-0.8
				c0.4,0,0.9,0.2,1.4,0.4c0.6,0.3,0.9,0.4,1.1,0.4c0.3,0,0.6-0.3,0.7-0.7h1.2c-0.1,1.7-0.6,2.6-1.6,2.6c-0.3,0-0.9-0.2-1.4-0.4
				c-0.6-0.3-1-0.4-1.2-0.4c-0.1,0-0.2,0-0.3,0c-0.1,0-0.2,0.1-0.3,0.2C71.9,73.7,71.8,73.9,71.8,74.1z M74.3,79.5l-1.4,0.4
				c-0.2,0.1-0.3,0.2-0.4,0.3c-0.1,0.1-0.2,0.3-0.2,0.5s0.1,0.4,0.3,0.6c0.2,0.2,0.3,0.2,0.6,0.2c0.4,0,0.8-0.2,1.1-0.5
				C74.3,80.9,74.3,79.5,74.3,79.5z"/>
			<path class="st1" d="M86.3,82.4c-0.8,0.8-1.8,1.2-3.1,1.2s-2.5-0.4-3.1-1.2c-0.8-0.8-1.1-1.9-1.1-3.2c0-1.4,0.3-2.5,1.1-3.2
				s1.8-1.2,3.1-1.2s2.5,0.4,3.1,1.2c0.8,0.8,1.1,1.9,1.1,3.2C87.4,80.5,87,81.6,86.3,82.4z M84.2,77.2c-0.2-0.4-0.5-0.7-1-0.7
				s-0.9,0.3-1,0.7c-0.2,0.4-0.3,1.1-0.3,1.9c0,0.9,0.1,1.4,0.3,1.9c0.2,0.4,0.5,0.7,1,0.7s0.9-0.3,1-0.7c0.2-0.4,0.3-1.1,0.3-1.9
				C84.5,78.3,84.4,77.7,84.2,77.2z"/>
			<path class="st1" d="M92.1,71.8H97c1.6,0,2.8,0.3,3.5,0.9c0.8,0.7,1.1,1.6,1.1,3c0,1.4-0.3,2.4-1.1,3c-0.8,0.7-2,1-3.5,1h-1v0.8
				c0,0.3,0.1,0.6,0.2,0.7c0.1,0.1,0.5,0.2,1.2,0.2v2h-5.3v-2c0.4,0,0.6-0.1,0.7-0.2c0.1-0.1,0.1-0.3,0.1-0.7v-5.8
				c0-0.2,0-0.3,0-0.4s0-0.2-0.1-0.3c0-0.1-0.1-0.2-0.2-0.2s-0.3,0-0.5,0C92.1,73.9,92.1,71.8,92.1,71.8z M96,77.2h1
				c0.6,0,0.9-0.1,1.2-0.3s0.3-0.6,0.3-1.1s-0.1-0.9-0.3-1s-0.6-0.3-1.2-0.3h-1V77.2z"/>
			<path class="st1" d="M106.3,76.6l0.9-1.4c0.5-0.3,1-0.5,1.5-0.5c0.3,0,0.7,0.1,1.1,0.2l-0.9,2.5c-0.3-0.1-0.6-0.1-0.9-0.1
				c-0.6,0-1.1,0.2-1.7,0.5v2.7c0,0.3,0.1,0.6,0.2,0.7c0.2,0.1,0.5,0.2,1.2,0.2v2h-5.1v-2c0.4,0,0.6-0.1,0.7-0.2
				c0.1-0.1,0.1-0.3,0.1-0.7v-2.7c0-0.2,0-0.3,0-0.4s0-0.2-0.1-0.3c-0.1-0.1-0.2-0.2-0.3-0.2c-0.1,0-0.3,0-0.5,0v-2h3.7L106.3,76.6
				L106.3,76.6z"/>
			<path class="st1" d="M118.3,77.9c0,0.5-0.1,1.1-0.3,1.9h-4.9c0.1,0.6,0.3,1,0.7,1.4c0.3,0.3,0.9,0.4,1.4,0.4
				c0.4,0,0.9-0.1,1.4-0.2c0.5-0.2,0.9-0.3,1.2-0.5v2c-0.8,0.4-1.9,0.7-3.2,0.7c-1.4,0-2.6-0.4-3.2-1.2c-0.8-0.9-1.1-1.9-1.1-3.2
				c0-1.4,0.3-2.4,1.1-3.2s1.9-1.2,3.2-1.2c1.1,0,2,0.3,2.7,0.8C117.9,75.9,118.3,76.8,118.3,77.9z M113.1,78.5l2.4-0.2
				c0.1-0.3,0.1-0.4,0.1-0.7c0-0.3-0.1-0.6-0.3-0.8c-0.2-0.2-0.4-0.3-0.7-0.3C113.7,76.6,113.2,77.2,113.1,78.5z"/>
			<path class="st1" d="M119.1,76.9v-1.2l0.8-0.9l1.9-2h1v2h2v2h-2v3.7c0,0.5,0.3,0.8,0.9,0.8c0.3,0,0.7-0.1,1-0.2v2
				c-0.5,0.3-1.2,0.3-2,0.3c-1,0-1.7-0.2-2.1-0.6c-0.4-0.4-0.7-1-0.7-2v-4.1H119.1z"/>
			<path class="st1" d="M133,82.4c-0.8,0.8-1.8,1.2-3.1,1.2c-1.4,0-2.5-0.4-3.1-1.2c-0.8-0.8-1.1-1.9-1.1-3.2c0-1.4,0.3-2.5,1.1-3.2
				c0.8-0.8,1.8-1.2,3.1-1.2c1.4,0,2.5,0.4,3.1,1.2c0.8,0.8,1.1,1.9,1.1,3.2C134.1,80.5,133.7,81.6,133,82.4z M130.9,77.2
				c-0.2-0.4-0.5-0.7-1-0.7s-0.9,0.3-1,0.7c-0.2,0.4-0.3,1.1-0.3,1.9c0,0.9,0.1,1.4,0.3,1.9c0.2,0.4,0.5,0.7,1,0.7s0.9-0.3,1-0.7
				c0.2-0.4,0.3-1.1,0.3-1.9C131.2,78.3,131.1,77.7,130.9,77.2z"/>
		</g>
	</g>
	<g>
		<g>
			<path class="st1" d="M38.7,90.5l2.6,9.1c0.1,0.2,0.2,0.3,0.3,0.4c0.2,0.1,0.3,0.1,0.6,0.1v2H39l-0.6-2.2h-3.1l-0.6,2.2h-3.3v-2
				c0.3,0,0.5-0.1,0.7-0.2c0.2-0.1,0.3-0.3,0.3-0.6l2.6-8.8H38.7z M37.7,97.4L37.4,96c-0.1-0.4-0.3-1.1-0.4-2.2l0,0
				c-0.2,1.1-0.3,1.9-0.5,2.5l-0.3,1.1C36.1,97.4,37.7,97.4,37.7,97.4z"/>
			<path class="st1" d="M46.9,95.3l0.9-1.4c0.5-0.3,1-0.5,1.5-0.5c0.3,0,0.7,0.1,1.1,0.2l-0.9,2.5C49.2,96,48.9,96,48.6,96
				c-0.6,0-1.1,0.2-1.7,0.5v2.7c0,0.3,0.1,0.6,0.2,0.7c0.2,0.1,0.5,0.2,1.2,0.2v2h-5.1v-2c0.4,0,0.6-0.1,0.7-0.2
				c0.1-0.1,0.1-0.3,0.1-0.7v-2.7c0-0.2,0-0.3,0-0.4s0-0.2-0.1-0.3c-0.1-0.1-0.2-0.2-0.3-0.2s-0.3,0-0.5,0v-2h3.7L46.9,95.3
				L46.9,95.3z"/>
			<path class="st1" d="M55.5,100.9l-1,0.9c-0.4,0.3-0.9,0.4-1.5,0.4c-0.8,0-1.4-0.3-1.8-0.7s-0.7-1-0.7-1.6c0-0.4,0.1-0.8,0.3-1.1
				c0.2-0.3,0.3-0.6,0.7-0.8c0.3-0.2,0.5-0.3,0.8-0.4c0.3-0.1,0.5-0.2,0.8-0.3l2.6-0.5v-0.3c0-0.3-0.1-0.7-0.3-0.9
				c-0.3-0.3-0.6-0.3-1-0.3c-0.4,0-0.9,0.1-1.2,0.2c-0.3,0.1-0.9,0.3-1.4,0.5l-0.3-0.3L52,94c0.9-0.3,1.9-0.5,2.9-0.5
				c1.1,0,2,0.3,2.6,0.7c0.7,0.4,0.9,1.1,0.9,2v3.2c0,0.3,0,0.4,0,0.5s0.1,0.2,0.2,0.2c0.1,0.1,0.3,0.1,0.6,0.1v2
				c-0.6,0.1-1.2,0.2-1.8,0.2C56.3,102.3,55.7,101.9,55.5,100.9z M55.5,98.2l-1.4,0.4c-0.2,0.1-0.3,0.2-0.4,0.3
				c-0.1,0.1-0.2,0.3-0.2,0.5c0,0.3,0.1,0.4,0.3,0.6c0.2,0.2,0.3,0.2,0.6,0.2c0.4,0,0.8-0.2,1.1-0.5V98.2z"/>
			<path class="st1" d="M64,95.3l0.9-1.4c0.5-0.3,1-0.5,1.5-0.5c0.3,0,0.7,0.1,1.1,0.2l-0.9,2.5C66.2,96,66,96,65.6,96
				c-0.6,0-1.1,0.2-1.7,0.5v2.7c0,0.3,0.1,0.6,0.2,0.7c0.2,0.1,0.5,0.2,1.2,0.2v2h-5.1v-2c0.4,0,0.6-0.1,0.7-0.2
				c0.1-0.1,0.1-0.3,0.1-0.7v-2.7c0-0.2,0-0.3,0-0.4s0-0.2-0.1-0.3c-0.1-0.1-0.2-0.2-0.3-0.2c-0.1,0-0.3,0-0.5,0v-2h3.7L64,95.3
				L64,95.3z"/>
			<path class="st1" d="M72.6,100.9l-1,0.9c-0.4,0.3-0.9,0.4-1.5,0.4c-0.8,0-1.4-0.3-1.8-0.7c-0.4-0.4-0.7-1-0.7-1.6
				c0-0.4,0.1-0.8,0.3-1.1c0.2-0.3,0.3-0.6,0.7-0.8c0.3-0.2,0.5-0.3,0.8-0.4s0.5-0.2,0.8-0.3l2.6-0.5v-0.3c0-0.3-0.1-0.7-0.3-0.9
				c-0.3-0.3-0.6-0.3-1-0.3c-0.4,0-0.9,0.1-1.2,0.2c-0.3,0.1-0.9,0.3-1.4,0.5l-0.3-0.3l0.7-1.8c0.9-0.3,1.9-0.5,2.9-0.5
				c1.1,0,2,0.3,2.6,0.7c0.6,0.4,0.9,1.1,0.9,2v3.2c0,0.3,0,0.4,0,0.5s0.1,0.2,0.2,0.2c0.1,0.1,0.3,0.1,0.6,0.1v2
				c-0.6,0.1-1.2,0.2-1.8,0.2C73.4,102.3,72.8,101.9,72.6,100.9z M72.6,98.2l-1.4,0.4c-0.2,0.1-0.3,0.2-0.4,0.3s-0.2,0.3-0.2,0.5
				c0,0.3,0.1,0.4,0.3,0.6s0.3,0.2,0.6,0.2c0.4,0,0.8-0.2,1.1-0.5C72.6,99.7,72.6,98.2,72.6,98.2z"/>
			<path class="st1" d="M85.5,93.5v9.4c0,0.2,0,0.3,0,0.4s0,0.2,0.1,0.3c0.1,0.1,0.2,0.2,0.3,0.2c0.1,0,0.3,0,0.5,0v2h-4.6v-2
				c0.4,0,0.6-0.1,0.7-0.2c0.1-0.1,0.1-0.3,0.1-0.7v-2l-1,0.9c-0.4,0.3-0.9,0.4-1.4,0.4c-0.9,0-1.7-0.4-2.2-1.2S77,99.2,77,97.9
				c0-1.4,0.3-2.5,1.1-3.2c0.7-0.8,1.7-1.2,3-1.2c1,0,1.9,0.3,2.6,0.7l0.9-0.6C84.6,93.5,85.5,93.5,85.5,93.5z M82.6,99.8v-4.5
				c-0.3-0.1-0.7-0.2-1-0.2c-0.6,0-0.9,0.3-1.2,0.7c-0.3,0.4-0.3,1.1-0.3,2c0,1.6,0.5,2.4,1.4,2.4C81.9,100.2,82.4,100.1,82.6,99.8z
				"/>
			<path class="st1" d="M95.6,93.6v5.6c0,0.2,0,0.3,0,0.4c0,0.1,0,0.2,0.1,0.3s0.2,0.2,0.3,0.2c0.1,0,0.3,0,0.5,0v2h-3.7l-0.1-1.4
				l0,0l-0.9,1c-0.6,0.3-1.2,0.5-1.8,0.5c-0.7,0-1.3-0.3-1.8-0.7c-0.4-0.4-0.7-1.1-0.7-1.9v-3.2c0-0.2,0-0.3,0-0.4s0-0.2-0.1-0.3
				c-0.1-0.1-0.2-0.2-0.3-0.2c-0.1,0-0.3,0-0.5,0v-2h3.7v5.5c0,0.6,0.3,0.9,0.9,0.9c0.3,0,0.8-0.2,1.4-0.5v-3.1c0-0.2,0-0.3,0-0.4
				s0-0.2-0.1-0.3c-0.1-0.1-0.2-0.2-0.3-0.2s-0.3,0-0.5,0v-2C91.9,93.6,95.6,93.6,95.6,93.6z"/>
			<path class="st1" d="M102.2,100.9l-1,0.9c-0.4,0.3-0.9,0.4-1.5,0.4c-0.8,0-1.4-0.3-1.8-0.7c-0.4-0.4-0.7-1-0.7-1.6
				c0-0.4,0.1-0.8,0.3-1.1c0.2-0.3,0.3-0.6,0.7-0.8c0.3-0.2,0.5-0.3,0.8-0.4s0.5-0.2,0.8-0.3l2.6-0.5v-0.3c0-0.3-0.1-0.7-0.3-0.9
				c-0.3-0.3-0.6-0.3-1-0.3c-0.4,0-0.9,0.1-1.2,0.2c-0.3,0.1-0.9,0.3-1.4,0.5L98,95.7l0.7-1.8c0.9-0.3,1.9-0.5,2.9-0.5
				c1.1,0,2,0.3,2.6,0.7c0.6,0.4,0.9,1.1,0.9,2v3.2c0,0.3,0,0.4,0,0.5s0.1,0.2,0.2,0.2c0.1,0.1,0.3,0.1,0.6,0.1v2
				c-0.6,0.1-1.2,0.2-1.8,0.2C103,102.3,102.3,101.9,102.2,100.9z M102.2,98.2l-1.4,0.4c-0.2,0.1-0.3,0.2-0.4,0.3s-0.2,0.3-0.2,0.5
				c0,0.3,0.1,0.4,0.3,0.6c0.2,0.2,0.3,0.2,0.6,0.2c0.4,0,0.8-0.2,1.1-0.5C102.2,99.7,102.2,98.2,102.2,98.2z"/>
			<path class="st1" d="M110.6,95.3l0.9-1.4c0.5-0.3,1-0.5,1.5-0.5c0.3,0,0.7,0.1,1.1,0.2l-0.9,2.5c-0.3-0.1-0.6-0.1-0.9-0.1
				c-0.6,0-1.1,0.2-1.7,0.5v2.7c0,0.3,0.1,0.6,0.2,0.7c0.1,0.1,0.5,0.2,1.2,0.2v2h-5.1v-2c0.4,0,0.6-0.1,0.7-0.2
				c0.1-0.1,0.1-0.3,0.1-0.7v-2.7c0-0.2,0-0.3,0-0.4s0-0.2-0.1-0.3c-0.1-0.1-0.2-0.2-0.3-0.2s-0.3,0-0.5,0v-2h3.7L110.6,95.3
				L110.6,95.3z"/>
			<path class="st1" d="M119.2,100.9l-1,0.9c-0.4,0.3-0.9,0.4-1.5,0.4c-0.8,0-1.4-0.3-1.8-0.7s-0.7-1-0.7-1.6c0-0.4,0.1-0.8,0.3-1.1
				c0.2-0.3,0.3-0.6,0.7-0.8c0.3-0.2,0.5-0.3,0.8-0.4s0.5-0.2,0.8-0.3l2.6-0.5v-0.3c0-0.3-0.1-0.7-0.3-0.9c-0.3-0.3-0.6-0.3-1-0.3
				c-0.4,0-0.9,0.1-1.2,0.2c-0.3,0.1-0.9,0.3-1.4,0.5l-0.3-0.3l0.7-1.8c0.9-0.3,1.9-0.5,2.9-0.5c1.1,0,2,0.3,2.6,0.7
				c0.6,0.4,0.9,1.1,0.9,2v3.2c0,0.3,0,0.4,0,0.5s0.1,0.2,0.2,0.2c0.1,0.1,0.3,0.1,0.6,0.1v2c-0.6,0.1-1.2,0.2-1.8,0.2
				C120,102.3,119.4,101.9,119.2,100.9z M119.2,98.2l-1.4,0.4c-0.2,0.1-0.3,0.2-0.4,0.3c-0.1,0.1-0.2,0.3-0.2,0.5
				c0,0.3,0.1,0.4,0.3,0.6c0.2,0.2,0.3,0.2,0.6,0.2c0.4,0,0.8-0.2,1.1-0.5C119.2,99.7,119.2,98.2,119.2,98.2z"/>
		</g>
	</g>
</g>
</svg>
