<?xml version="1.0" encoding="utf-8"?>
<!-- Generator: Adobe Illustrator 25.2.1, SVG Export Plug-In . SVG Version: 6.00 Build 0)  -->
<svg version="1.1" id="Layer_1" xmlns="http://www.w3.org/2000/svg" xmlns:xlink="http://www.w3.org/1999/xlink" x="0px" y="0px"
	 viewBox="0 0 50 50" style="enable-background:new 0 0 50 50;" xml:space="preserve">
<style type="text/css">
	.st0{opacity:0;}
	.st1{fill:#FFFFFF;}
	.st2{fill-rule:evenodd;clip-rule:evenodd;fill:#FFFFFF;}
</style>
<g class="st0">
	<path class="st1" d="M36.5,21.8h12.7c0.4,0,0.8,0.4,0.8,0.8c0,0.2-0.1,0.4-0.2,0.5l-6.4,7.6c-0.3,0.3-0.8,0.4-1.1,0.1
		c0,0-0.1-0.1-0.1-0.1l-6.4-7.6c-0.3-0.3-0.2-0.9,0.1-1.1C36.1,21.8,36.3,21.8,36.5,21.8z M0.8,28.2h12.7c0.4,0,0.8-0.4,0.8-0.8
		c0-0.2-0.1-0.4-0.2-0.5l-6.4-7.6c-0.3-0.3-0.8-0.4-1.1-0.1c0,0-0.1,0.1-0.1,0.1l-6.4,7.6c-0.3,0.3-0.2,0.9,0.1,1.1
		C0.4,28.2,0.6,28.2,0.8,28.2z"/>
	<path class="st2" d="M25,8.8c-5,0-9.5,2.3-12.5,5.9c-0.5,0.7-1.6,0.8-2.3,0.3c-0.7-0.5-0.8-1.6-0.3-2.3c0,0,0-0.1,0.1-0.1
		c6.8-8.3,19.1-9.4,27.4-2.6c3.6,3,6,7.1,6.8,11.7h-3.3C39.3,14.2,32.7,8.8,25,8.8z M9.1,28.2c1.8,8.8,10.4,14.4,19.1,12.6
		c3.6-0.7,6.9-2.7,9.2-5.6c0.5-0.7,1.6-0.8,2.3-0.3c0.7,0.5,0.8,1.6,0.3,2.3c0,0,0,0.1-0.1,0.1c-6.8,8.3-19.1,9.4-27.4,2.6
		c-3.6-3-6-7.1-6.8-11.7H9.1z"/>
</g>
</svg>
