<?xml version="1.0" encoding="utf-8"?>
<!-- Generator: Adobe Illustrator 25.0.1, SVG Export Plug-In . SVG Version: 6.00 Build 0)  -->
<svg version="1.1" id="Layer_1" xmlns="http://www.w3.org/2000/svg" xmlns:xlink="http://www.w3.org/1999/xlink" x="0px" y="0px"
	 viewBox="0 0 383.9 141.1" style="enable-background:new 0 0 383.9 141.1;" xml:space="preserve">
<style type="text/css">
	.st0{fill:#FFFFFF;}
</style>
<g>
	<g>
		<g>
			<g>
				<path class="st0" d="M355.7,25.3L355.7,25.3c-1.4,6.3-2.8,12.6-4.2,18.9c7.9,0.2,14.9,1.1,17.2-8.8
					C371.5,24.1,362.9,25.1,355.7,25.3 M288.2,84.7l13.7-65.6c0.4-1.8,1.7-2.4,3.3-2.5h32.9l-1.9,9.2h-22.3l-4,18.8h20.7l-2.1,9.3
					h-20.6l-4.8,21.9h27.8l12.4-59.1h25.3c8.9,0,15.2,6.2,15.3,16.7c-0.2,15.3-12,20.2-26.2,19.9h-8.3l-6.9,31.4h-12.9l0,0H288.2z"
					/>
			</g>
		</g>
		<g>
			<path class="st0" d="M29.9,50.4h25.9l-8,35h-4.6l-0.5-8.3c-4.3,6.1-10.6,9.2-18.8,9.2c-7.5,0-13.5-2.8-18-8.5s-6.4-13.1-5.8-22.2
				C0.7,45,4.2,35.5,10.6,27.2c6.3-8.3,14.3-12.5,23.9-12.5c12.4,0,20.3,6.4,24,19.2l-7.6,2.6c-2.5-10.2-8.1-15.2-16.8-15.2
				c-7.2,0-13,3.5-17.6,10.6S9.4,47.1,8.8,56.4c-0.5,7.4,0.9,13.1,4,17.1s7.3,6,12.4,6c5,0,9.3-1.8,13-5.5s6.4-9.3,7.9-16.9H28.4
				L29.9,50.4z"/>
			<path class="st0" d="M92.8,54.7H72.7l-6.8,29.9h-8.4l15.6-68.2h21.3c6.4,0,11.2,0.7,14.2,2c3.1,1.3,5.4,3.5,7.1,6.3
				c1.7,2.9,2.4,6.1,2.2,9.8c-0.3,4.6-2,8.7-5.1,12.2s-7.1,5.7-11.9,6.4l7.7,31.4h-8.7L92.8,54.7z M74.3,47.9h15.6
				c12.5,0,19.1-4.5,19.6-13.5c0.5-7.5-4.2-11.3-14-11.3H80L74.3,47.9z"/>
			<path class="st0" d="M178,16.4L168.5,58c-1.7,7.5-3.6,13.1-5.7,16.6c-2.1,3.5-5,6.3-8.8,8.4s-8.4,3.1-13.6,3.1
				c-6.3,0-11.5-1.5-15.7-4.6s-6-7.9-5.6-14.6c0.1-2,0.9-6.2,2.4-12.7l8.6-37.7h8.3l-9,39.4c-1.3,5.5-1.9,9-2,10.5
				c-0.2,4.1,0.9,7.2,3.6,9.4c2.6,2.2,6,3.3,10.1,3.3c3.8,0,7.1-0.7,9.9-2.2c2.8-1.5,4.9-3.5,6.4-6.1s2.9-6.6,4.1-12.1l9.7-42.3
				L178,16.4L178,16.4z"/>
			<path class="st0" d="M187,57l-6.3,27.6h-8.4l15.6-68.2h18.7c5.5,0,9.8,0.5,12.9,1.5c3.1,1,5.6,3.1,7.6,6.5c2,3.3,2.9,7,2.6,10.9
				c-0.3,5.2-2.5,10.2-6.6,14.8s-11.6,7-22.4,7H187L187,57L187,57z M188.5,50.3h9.3c5.8,0,10-0.3,12.6-0.9s5-2.2,7-4.7
				c2.1-2.6,3.2-5.6,3.4-9.2c0.2-2.8-0.3-5.2-1.3-7.1c-1-2-2.5-3.4-4.2-4.1s-4.9-1.1-9.4-1.1l-11.3,0.1L188.5,50.3z"/>
			<path class="st0" d="M255.8,86c-7.8,0-13.9-2.8-18.3-8.4c-4.4-5.6-6.2-13-5.7-22.2c0.6-10.3,4.1-19.6,10.4-27.9
				s14.2-12.4,23.8-12.4c7.6,0,13.6,2.6,18.1,7.9s6.4,12.5,5.9,21.7c-0.7,10.9-4.1,20.5-10.3,28.9C273.5,81.8,265.5,86,255.8,86z
				 M256.2,79.2c5.2,0,9.7-2,13.6-5.9c3.9-4,6.7-9,8.5-15c1.8-6.1,2.8-11.2,3.1-15.4c0.4-6.6-0.9-11.7-3.9-15.4s-7.1-5.6-12.1-5.6
				c-7.3,0-13.1,3.6-17.5,10.9s-6.9,15.4-7.4,24.3c-0.4,7.1,0.8,12.5,3.8,16.3C247.2,77.3,251.2,79.2,256.2,79.2z"/>
		</g>
	</g>
	<g>
		<g>
			<path class="st0" d="M0,124.6l4.9-21.3h13.3l-0.5,2.1H7l-1.6,7h9.1l-0.5,2.1H4.9l-1.8,7.8h11.5l-0.5,2.3L0,124.6L0,124.6z"/>
			<path class="st0" d="M41.9,124.6h-2.6l4.5-19.5l-11.4,19.5h-2l-2.6-19.2l-4.4,19.2h-2.2l4.9-21.3H30l2.4,17.4l10.1-17.4h4.2
				L41.9,124.6z"/>
			<path class="st0" d="M55.2,116l-2,8.6h-2.6l4.9-21.3h5.8c1.7,0,3.1,0.2,4,0.5c1,0.3,1.7,1,2.4,2c0.6,1,0.9,2.2,0.8,3.4
				c-0.1,1.6-0.8,3.2-2.1,4.6c-1.3,1.4-3.6,2.2-7,2.2H55.2z M55.6,113.9h2.9c1.8,0,3.1-0.1,3.9-0.3s1.6-0.7,2.2-1.5s1-1.8,1.1-2.9
				c0.1-0.9-0.1-1.6-0.4-2.2s-0.8-1-1.3-1.3c-0.6-0.2-1.5-0.4-2.9-0.4h-3.5L55.6,113.9z"/>
			<path class="st0" d="M82.7,115.3h-6.3l-2.1,9.3h-2.6l4.9-21.3h6.7c2,0,3.5,0.2,4.4,0.6c1,0.4,1.7,1.1,2.2,2s0.8,1.9,0.7,3.1
				c-0.1,1.4-0.6,2.7-1.6,3.8s-2.2,1.8-3.7,2l2.4,9.8h-2.8L82.7,115.3z M76.9,113.2h4.9c3.9,0,6-1.4,6.1-4.2
				c0.1-2.3-1.3-3.5-4.4-3.5h-4.9L76.9,113.2z"/>
			<path class="st0" d="M95.3,124.6l4.9-21.3h13.3l-0.5,2.1h-10.7l-1.6,7h9.1l-0.5,2.1h-9.1l-1.8,7.8h11.5l-0.5,2.3L95.3,124.6
				L95.3,124.6z"/>
			<path class="st0" d="M133.5,107.8l-2.3,0.9c-0.3-1.2-1-2.1-1.9-2.8s-2-1.1-3.3-1.1c-1.5,0-2.7,0.4-3.5,1.1s-1.2,1.6-1.3,2.6
				c0,0.7,0.1,1.2,0.4,1.7c0.3,0.5,0.7,0.8,1.3,1.1c0.5,0.2,1.5,0.5,2.9,0.9c1.9,0.5,3.2,0.9,4,1.3s1.4,1,1.9,1.9s0.7,1.9,0.7,3.1
				c-0.1,2-1,3.6-2.5,4.8s-3.5,1.8-6,1.8c-4.6,0-7.4-2-8.3-5.9l2.4-0.8c0.8,3.1,2.8,4.6,6.1,4.6c1.8,0,3.1-0.4,4.1-1.3
				c1-0.8,1.5-1.8,1.6-3c0-0.7-0.1-1.3-0.4-1.8c-0.3-0.5-0.7-0.9-1.2-1.1s-1.4-0.5-2.5-0.8c-1.8-0.4-3.2-0.9-4.1-1.3
				c-1-0.5-1.7-1.1-2.2-1.9s-0.7-1.8-0.7-2.9c0.1-1.7,0.8-3.1,2.2-4.3c1.4-1.1,3.1-1.7,5.2-1.7C129.8,102.8,132.3,104.5,133.5,107.8
				z"/>
			<path class="st0" d="M149.4,118.4h-7.8l-3.4,6.2h-2.4l11.7-21.3h2.9l2.4,21.3h-2.7L149.4,118.4z M149.3,116.3l-1-9.8l-5.4,9.8
				H149.3z"/>
			<path class="st0" d="M176.4,107.8l-2.3,0.9c-0.3-1.2-1-2.1-1.9-2.8s-2-1.1-3.3-1.1c-1.5,0-2.7,0.4-3.5,1.1s-1.2,1.6-1.3,2.6
				c0,0.7,0.1,1.2,0.4,1.7s0.7,0.8,1.3,1.1c0.5,0.2,1.5,0.5,2.9,0.9c1.9,0.5,3.2,0.9,4,1.3s1.4,1,1.9,1.9s0.7,1.9,0.7,3.1
				c-0.1,2-1,3.6-2.5,4.8s-3.5,1.8-6,1.8c-4.6,0-7.4-2-8.3-5.9l2.4-0.8c0.8,3.1,2.8,4.6,6.1,4.6c1.8,0,3.1-0.4,4.1-1.3
				c1-0.8,1.5-1.8,1.6-3c0-0.7-0.1-1.3-0.4-1.8c-0.3-0.5-0.7-0.9-1.2-1.1s-1.4-0.5-2.5-0.8c-1.8-0.4-3.2-0.9-4.1-1.3
				c-1-0.5-1.7-1.1-2.2-1.9s-0.7-1.8-0.7-2.9c0.1-1.7,0.8-3.1,2.2-4.3c1.4-1.1,3.1-1.7,5.2-1.7C172.8,102.8,175.3,104.5,176.4,107.8
				z"/>
			<path class="st0" d="M196.9,116l-2,8.6h-2.6l4.9-21.3h5.8c1.7,0,3.1,0.2,4,0.5c1,0.3,1.7,1,2.4,2c0.6,1,0.9,2.2,0.8,3.4
				c-0.1,1.6-0.8,3.2-2.1,4.6s-3.6,2.2-7,2.2H196.9z M197.4,113.9h2.9c1.8,0,3.1-0.1,3.9-0.3c0.8-0.2,1.6-0.7,2.2-1.5
				c0.6-0.8,1-1.8,1.1-2.9c0.1-0.9-0.1-1.6-0.4-2.2c-0.3-0.6-0.8-1-1.3-1.3c-0.6-0.2-1.5-0.4-2.9-0.4h-3.5L197.4,113.9z"/>
			<path class="st0" d="M220.9,103.4l-4.9,21.3h-2.6l4.9-21.3C218.3,103.4,220.9,103.4,220.9,103.4z"/>
			<path class="st0" d="M233.1,125.1c-2.4,0-4.3-0.9-5.7-2.6s-1.9-4.1-1.8-6.9c0.2-3.2,1.3-6.1,3.2-8.7c2-2.6,4.4-3.9,7.4-3.9
				c2.4,0,4.3,0.8,5.6,2.5c1.4,1.6,2,3.9,1.8,6.8c-0.2,3.4-1.3,6.4-3.2,9C238.7,123.8,236.2,125.1,233.1,125.1z M233.3,122.9
				c1.6,0,3-0.6,4.2-1.8s2.1-2.8,2.7-4.7c0.6-1.9,0.9-3.5,1-4.8c0.1-2-0.3-3.6-1.2-4.8s-2.2-1.7-3.8-1.7c-2.3,0-4.1,1.1-5.4,3.4
				c-1.4,2.3-2.1,4.8-2.3,7.6c-0.1,2.2,0.3,3.9,1.2,5.1C230.5,122.4,231.7,122.9,233.3,122.9z"/>
			<path class="st0" d="M264.1,124.6H262l-7.2-18.2l-4.2,18.2h-2.1l4.9-21.3h2.9l6.7,17l3.9-17h2.1L264.1,124.6z"/>
			<path class="st0" d="M272.8,124.6l4.9-21.3h13.2l-0.5,2.1h-10.7l-1.6,7h9.1l-0.5,2.1h-9.1l-1.8,7.8h11.5l-0.5,2.3L272.8,124.6
				L272.8,124.6z"/>
			<path class="st0" d="M301.4,103.4l-4.9,21.3h-2.6l4.9-21.3C298.8,103.4,301.4,103.4,301.4,103.4z"/>
			<path class="st0" d="M316.2,115.3h-6.3l-2.1,9.3h-2.6l4.9-21.3h6.7c2,0,3.5,0.2,4.4,0.6c1,0.4,1.7,1.1,2.2,2s0.8,1.9,0.7,3.1
				c-0.1,1.4-0.6,2.7-1.6,3.8s-2.2,1.8-3.7,2l2.4,9.8h-2.8L316.2,115.3z M310.5,113.2h4.9c3.9,0,6-1.4,6.1-4.2
				c0.1-2.3-1.3-3.5-4.4-3.5h-4.9L310.5,113.2z"/>
			<path class="st0" d="M340.2,118.4h-7.8l-3.4,6.2h-2.4l11.7-21.3h2.9l2.4,21.3h-2.7L340.2,118.4z M340,116.3l-1-9.8l-5.4,9.8H340z
				"/>
			<path class="st0" d="M367.2,107.8l-2.3,0.9c-0.3-1.2-1-2.1-1.9-2.8s-2-1.1-3.3-1.1c-1.5,0-2.7,0.4-3.5,1.1s-1.2,1.6-1.3,2.6
				c0,0.7,0.1,1.2,0.4,1.7s0.7,0.8,1.3,1.1c0.5,0.2,1.5,0.5,2.9,0.9c1.9,0.5,3.2,0.9,4,1.3s1.4,1,1.9,1.9s0.7,1.9,0.7,3.1
				c-0.1,2-1,3.6-2.5,4.8s-3.5,1.8-6,1.8c-4.6,0-7.4-2-8.3-5.9l2.4-0.8c0.8,3.1,2.8,4.6,6.1,4.6c1.8,0,3.1-0.4,4.1-1.3
				c1-0.8,1.5-1.8,1.6-3c0-0.7-0.1-1.3-0.4-1.8s-0.7-0.9-1.2-1.1s-1.4-0.5-2.5-0.8c-1.8-0.4-3.2-0.9-4.1-1.3c-1-0.5-1.7-1.1-2.2-1.9
				s-0.7-1.8-0.7-2.9c0.1-1.7,0.8-3.1,2.2-4.3c1.4-1.1,3.1-1.7,5.2-1.7C363.5,102.8,366,104.5,367.2,107.8z"/>
		</g>
	</g>
</g>
</svg>
