<svg id="Camada_1" data-name="Camada 1" xmlns="http://www.w3.org/2000/svg" viewBox="0 0 97.95 98.76"><defs><style>.cls-1,.cls-3{fill:#1f3a6e;fill-rule:evenodd;}.cls-2{fill:none;stroke:#fff;stroke-miterlimit:22.93;stroke-width:0.46px;}.cls-3{opacity:0.3;}</style></defs><path class="cls-1" d="M68.77,70a168.75,168.75,0,0,1-17.06,7.7V76.6c5-2,10.27-4.27,15.65-7Z" transform="translate(-3.65 -5.05)"/><path class="cls-1" d="M21,18.14A117.76,117.76,0,0,0,50.31,45l-1.76.68A112,112,0,0,1,19.89,19.08l0-.06L19,17.83s0,0,0,0A50.22,50.22,0,0,1,52.23,5.05a49.26,49.26,0,0,1,37.32,17l-.46,3.19A47.38,47.38,0,0,0,51.6,6.92,46,46,0,0,0,21,18.14" transform="translate(-3.65 -5.05)"/><polygon class="cls-1" points="30.56 58.27 30.56 58.27 30.56 59.8 30.56 59.8 30.56 58.27"/><polygon class="cls-1" points="30.56 58.27 30.56 58.27 30.56 59.8 30.56 59.8 30.56 58.27"/><polygon class="cls-2" points="30.56 58.27 30.56 58.27 30.56 59.8 30.56 59.8 30.56 58.27"/><path class="cls-1" d="M54.79,49.82c2.22-.75,3.07.72,3.07,3.07a5.5,5.5,0,0,1-3.24,5.18l-2.9,1.09V51.1l2.6-1.1.46-.18m19.69,15.9c2.39-1.39,4.77-2.85,7.1-4.4-1.34-.39-3.82-1.16-7.1-2.39ZM66.13,55.44c-.82-.37-1.65-.77-2.51-1.18-.81,3-3,5.92-7.94,8.06l-4,1.61V77.72A180.11,180.11,0,0,1,28.59,85l-.07-30.2A1.78,1.78,0,0,1,30,53c7.16-1.6,13.45-3.73,13.45-3.73V54s-3.75,1.31-9.18,2.69v8.12c4.26-1.09,8.46-2.47,8.46-2.47v4.76s-4.55,1.43-8.46,2.45v9.33C40.68,77.22,46,75.35,46,75.35L46,48.4a141.87,141.87,0,0,0,35.86-18,1.25,1.25,0,0,1,.76-.26,1.54,1.54,0,0,1,1.41,1.28L88.1,51l4.15-28.4C96.39,19.16,99,16.57,99,16.57L96.17,31.88A49.39,49.39,0,1,1,3.79,64.05a.87.87,0,0,1,.52-1.14A37,37,0,0,0,25.92,83.12v1.17A36.2,36.2,0,0,1,6.54,69.19,47.45,47.45,0,0,0,51.6,101.77c.47,0,.94,0,1.41,0a47.42,47.42,0,0,0,46-47.4A47.17,47.17,0,0,0,95.4,36.1L92.09,54.18s-3.59,3.2-7.82,6.19L79,37.05s-2.75,1.86-4.51,2.82l0,17.47A93.45,93.45,0,0,0,84,60.61a86.65,86.65,0,0,1-9.51,6.25s-3,1.77-5.71,3.15l0-26.9s-2.61,1.5-5.89,3A10.16,10.16,0,0,1,64,51a13.52,13.52,0,0,1-.1,1.68l2.2,1.06Z" transform="translate(-3.65 -5.05)"/><path class="cls-3" d="M34.22,77.38v-7.8c4.78-1.28,8.45-2.44,8.45-2.44V62.38L40,61.57s-2.61.85-5.8,1.75V56.73c5.19-1.32,9.13-2.67,9.13-2.67V74.55s-4.86,1.68-9.13,2.83" transform="translate(-3.65 -5.05)"/><path class="cls-3" d="M54.79,49.82a5.1,5.1,0,0,1,.41,2.26A5.48,5.48,0,0,1,52,57.26l-.25.09V51.1l2.6-1.1.46-.18" transform="translate(-3.65 -5.05)"/><path class="cls-3" d="M25.93,83.1A36.79,36.79,0,0,1,4.32,62.91,48.08,48.08,0,0,1,19.84,19l.05.07A112,112,0,0,0,48.55,45.71c-1.67.64-3.4,1.27-5.18,1.87v1.71l-2.62-.8s-6.29,2.13-13.46,3.73A1.79,1.79,0,0,0,25.86,54Z" transform="translate(-3.65 -5.05)"/><path class="cls-3" d="M74.48,65.72c2.39-1.39,4.77-2.85,7.1-4.4-1.34-.39-3.82-1.16-7.1-2.39Z" transform="translate(-3.65 -5.05)"/><path class="cls-3" d="M63.62,54.26c.86.41,1.69.81,2.51,1.18V69.2l1.32.4h-.08c-5.38,2.74-10.68,5-15.65,7V63.93l4-1.61c4.93-2.14,7.13-5,7.94-8.06" transform="translate(-3.65 -5.05)"/></svg>