<?xml version="1.0" encoding="utf-8"?>
<!-- Generator: Adobe Illustrator 24.1.2, SVG Export Plug-In . SVG Version: 6.00 Build 0)  -->
<svg version="1.1" id="Layer_1" xmlns="http://www.w3.org/2000/svg" xmlns:xlink="http://www.w3.org/1999/xlink" x="0px" y="0px"
	 viewBox="0 0 259.9 76.5" style="enable-background:new 0 0 259.9 76.5;" xml:space="preserve">
<style type="text/css">
	.st0{fill:#FFFFFF;}
</style>
<g>
	<path class="st0" d="M236.9,9.1L236.9,9.1c-0.9,4.1-1.8,8.2-2.7,12.3c5.2,0.1,9.7,0.7,11.3-5.8C247.2,8.3,241.6,9,236.9,9.1
		 M192.8,47.9l8.9-42.8c0.3-1.1,1.1-1.6,2.1-1.6h21.5l-1.3,6h-14.6L207,21.7h13.5l-1.4,6.1h-13.5l-3.1,14.3h18.1l8.1-38.6h16.5
		c5.8,0,10,4,10,10.9c-0.1,10-7.9,13.2-17.1,13h-5.4l-4.5,20.5h-8.4l0,0H192.8z"/>
	<path class="st0" d="M24.1,25.5H41l-5.2,22.9h-3L32.4,43c-2.8,4-6.9,6-12.3,6c-4.9,0-8.8-1.9-11.7-5.6c-2.9-3.7-4.2-8.6-3.8-14.5
		C5,22,7.3,15.8,11.4,10.3c4.1-5.4,9.3-8.1,15.6-8.1c8.1,0,13.3,4.2,15.6,12.6l-4.9,1.7c-1.6-6.6-5.3-10-11-10
		c-4.7,0-8.5,2.3-11.5,6.9c-3,4.6-4.6,10-5,16c-0.3,4.8,0.6,8.6,2.6,11.2c2.1,2.6,4.8,3.9,8.1,3.9c3.2,0,6.1-1.2,8.5-3.6
		c2.4-2.4,4.2-6.1,5.2-11H23.1L24.1,25.5z"/>
	<path class="st0" d="M65.2,28.3H52l-4.5,19.5h-5.5L52.3,3.3h13.9c4.2,0,7.3,0.4,9.3,1.3c2,0.9,3.6,2.3,4.7,4.1
		c1.1,1.9,1.6,4,1.4,6.4c-0.2,3-1.3,5.7-3.3,8c-2,2.3-4.6,3.7-7.7,4.2l5,20.5h-5.8L65.2,28.3z M53.1,23.9h10.2
		c8.2,0,12.5-2.9,12.8-8.8c0.3-4.9-2.7-7.4-9.1-7.4H56.8L53.1,23.9z"/>
	<path class="st0" d="M120.8,3.3l-6.2,27.2c-1.1,4.9-2.4,8.5-3.7,10.8c-1.3,2.3-3.3,4.1-5.8,5.5c-2.5,1.4-5.5,2-8.9,2
		c-4.1,0-7.5-1-10.2-3c-2.7-2-3.9-5.2-3.7-9.6c0.1-1.3,0.6-4.1,1.6-8.3l5.7-24.6H95l-5.9,25.8c-0.8,3.6-1.3,5.9-1.3,6.9
		c-0.2,2.7,0.6,4.7,2.3,6.2c1.7,1.4,3.9,2.2,6.6,2.2c2.5,0,4.6-0.5,6.5-1.5c1.8-1,3.2-2.3,4.2-4c1-1.7,1.9-4.3,2.7-7.9l6.3-27.6
		H120.8z"/>
	<path class="st0" d="M126.7,29.8l-4.1,18h-5.5l10.2-44.6h12.2c3.6,0,6.4,0.3,8.4,1c2,0.6,3.6,2.1,4.9,4.2c1.3,2.2,1.9,4.5,1.7,7.1
		c-0.2,3.4-1.7,6.6-4.3,9.7c-2.7,3-7.5,4.6-14.6,4.6H126.7z M127.7,25.4h6.1c3.8,0,6.5-0.2,8.2-0.6c1.7-0.4,3.3-1.4,4.6-3.1
		c1.4-1.7,2.1-3.7,2.2-6c0.1-1.8-0.2-3.4-0.9-4.7c-0.7-1.3-1.6-2.2-2.8-2.7c-1.2-0.5-3.2-0.7-6.1-0.7l-7.4,0.1L127.7,25.4z"/>
	<path class="st0" d="M171.6,48.8c-5.1,0-9.1-1.8-11.9-5.5c-2.8-3.7-4.1-8.5-3.7-14.5c0.4-6.8,2.7-12.8,6.8-18.3
		c4.1-5.4,9.3-8.1,15.6-8.1c5,0,8.9,1.7,11.8,5.2c2.9,3.4,4.2,8.2,3.8,14.2c-0.4,7.1-2.7,13.4-6.7,18.9
		C183.2,46,178,48.8,171.6,48.8 M171.9,44.3c3.4,0,6.4-1.3,8.9-3.9c2.5-2.6,4.4-5.8,5.6-9.8c1.2-4,1.8-7.3,2-10
		c0.3-4.3-0.6-7.6-2.6-10.1c-2-2.4-4.6-3.6-7.9-3.6c-4.7,0-8.5,2.4-11.4,7.1c-2.9,4.8-4.5,10.1-4.8,15.9c-0.3,4.6,0.5,8.2,2.5,10.6
		C166,43.1,168.6,44.3,171.9,44.3"/>
	<polygon class="st0" points="4.6,74 7.7,60.1 16.4,60.1 16.1,61.5 9.1,61.5 8.1,66.1 14,66.1 13.7,67.4 7.7,67.4 6.6,72.5 
		14.1,72.5 13.8,74 	"/>
	<polygon class="st0" points="31.9,74 30.2,74 33.1,61.3 25.7,74 24.4,74 22.7,61.5 19.8,74 18.4,74 21.6,60.1 24.1,60.1 25.7,71.5 
		32.3,60.1 35.1,60.1 	"/>
	<path class="st0" d="M40.6,68.4L39.3,74h-1.7l3.2-13.9h3.8c1.1,0,2,0.1,2.6,0.3c0.6,0.2,1.1,0.6,1.5,1.3c0.4,0.7,0.6,1.4,0.5,2.2
		c-0.1,1.1-0.5,2.1-1.4,3c-0.8,0.9-2.4,1.4-4.6,1.4H40.6z M40.9,67h1.9c1.2,0,2-0.1,2.6-0.2c0.5-0.1,1-0.4,1.4-1
		c0.4-0.5,0.7-1.1,0.7-1.9c0-0.6-0.1-1.1-0.3-1.5c-0.2-0.4-0.5-0.7-0.9-0.8c-0.4-0.2-1-0.2-1.9-0.2l-2.3,0L40.9,67z"/>
	<path class="st0" d="M58.6,67.9h-4.1L53.1,74h-1.7l3.2-13.9h4.3c1.3,0,2.3,0.1,2.9,0.4c0.6,0.3,1.1,0.7,1.5,1.3
		c0.3,0.6,0.5,1.2,0.4,2c-0.1,0.9-0.4,1.8-1,2.5c-0.6,0.7-1.4,1.2-2.4,1.3l1.6,6.4H60L58.6,67.9z M54.8,66.5H58c2.6,0,3.9-0.9,4-2.8
		c0.1-1.5-0.9-2.3-2.9-2.3h-3.2L54.8,66.5z"/>
	<polygon class="st0" points="66.8,74 69.9,60.1 78.6,60.1 78.3,61.5 71.3,61.5 70.3,66.1 76.3,66.1 75.9,67.4 70,67.4 68.8,72.5 
		76.3,72.5 76,74 	"/>
	<path class="st0" d="M91.7,63l-1.5,0.6c-0.2-0.8-0.6-1.4-1.2-1.8c-0.6-0.5-1.3-0.7-2.2-0.7c-1,0-1.8,0.2-2.3,0.7
		c-0.5,0.5-0.8,1.1-0.9,1.7c0,0.4,0.1,0.8,0.3,1.1c0.2,0.3,0.5,0.5,0.8,0.7c0.3,0.2,1,0.3,1.9,0.6c1.2,0.3,2.1,0.6,2.6,0.9
		c0.5,0.3,0.9,0.7,1.3,1.2c0.3,0.6,0.5,1.2,0.4,2c-0.1,1.3-0.6,2.4-1.6,3.2c-1,0.8-2.3,1.2-3.9,1.2c-3,0-4.8-1.3-5.4-3.9l1.5-0.5
		c0.5,2,1.8,3,4,3c1.2,0,2.1-0.3,2.7-0.8c0.6-0.6,1-1.2,1-1.9c0-0.4-0.1-0.8-0.3-1.2c-0.2-0.3-0.5-0.6-0.8-0.7
		c-0.3-0.2-0.9-0.3-1.7-0.5c-1.2-0.3-2.1-0.6-2.7-0.9c-0.6-0.3-1.1-0.7-1.4-1.3c-0.3-0.5-0.5-1.2-0.4-1.9c0.1-1.1,0.5-2,1.4-2.8
		c0.9-0.7,2-1.1,3.4-1.1C89.3,59.7,91,60.8,91.7,63"/>
	<path class="st0" d="M102.2,69.9h-5.1L94.8,74h-1.6l7.7-13.9h1.9l1.6,13.9h-1.8L102.2,69.9z M102,68.6l-0.7-6.4l-3.5,6.4H102z"/>
	<path class="st0" d="M119.8,63l-1.5,0.6c-0.2-0.8-0.6-1.4-1.2-1.8c-0.6-0.5-1.3-0.7-2.2-0.7c-1,0-1.8,0.2-2.3,0.7
		c-0.5,0.5-0.8,1.1-0.9,1.7c0,0.4,0.1,0.8,0.3,1.1c0.2,0.3,0.5,0.5,0.8,0.7c0.3,0.2,1,0.3,1.9,0.6c1.2,0.3,2.1,0.6,2.6,0.9
		c0.5,0.3,0.9,0.7,1.3,1.2c0.3,0.6,0.5,1.2,0.4,2c-0.1,1.3-0.6,2.4-1.6,3.2c-1,0.8-2.3,1.2-3.9,1.2c-3,0-4.8-1.3-5.4-3.9l1.5-0.5
		c0.5,2,1.8,3,4,3c1.2,0,2.1-0.3,2.7-0.8c0.6-0.6,1-1.2,1-1.9c0-0.4-0.1-0.8-0.3-1.2c-0.2-0.3-0.5-0.6-0.8-0.7
		c-0.3-0.2-0.9-0.3-1.7-0.5c-1.2-0.3-2.1-0.6-2.7-0.9c-0.6-0.3-1.1-0.7-1.4-1.3c-0.3-0.5-0.5-1.2-0.4-1.9c0.1-1.1,0.5-2,1.4-2.8
		c0.9-0.7,2-1.1,3.4-1.1C117.4,59.7,119.1,60.8,119.8,63"/>
	<path class="st0" d="M133.2,68.4l-1.3,5.6h-1.7l3.2-13.9h3.8c1.1,0,2,0.1,2.6,0.3c0.6,0.2,1.1,0.6,1.5,1.3c0.4,0.7,0.6,1.4,0.5,2.2
		c-0.1,1.1-0.5,2.1-1.4,3c-0.8,0.9-2.4,1.4-4.6,1.4H133.2z M133.5,67h1.9c1.2,0,2-0.1,2.6-0.2c0.5-0.1,1-0.4,1.4-1
		c0.4-0.5,0.7-1.1,0.7-1.9c0-0.6-0.1-1.1-0.3-1.5c-0.2-0.4-0.5-0.7-0.9-0.8c-0.4-0.2-1-0.2-1.9-0.2l-2.3,0L133.5,67z"/>
	<polygon class="st0" points="148.9,60.1 145.7,74 144,74 147.1,60.1 	"/>
	<path class="st0" d="M156.9,74.3c-1.6,0-2.8-0.6-3.7-1.7c-0.9-1.1-1.3-2.7-1.2-4.5c0.1-2.1,0.8-4,2.1-5.7c1.3-1.7,2.9-2.5,4.9-2.5
		c1.5,0,2.8,0.5,3.7,1.6c0.9,1.1,1.3,2.5,1.2,4.4c-0.1,2.2-0.8,4.2-2.1,5.9C160.5,73.5,158.8,74.3,156.9,74.3 M156.9,72.9
		c1.1,0,2-0.4,2.8-1.2c0.8-0.8,1.4-1.8,1.7-3.1c0.4-1.2,0.6-2.3,0.6-3.1c0.1-1.3-0.2-2.4-0.8-3.1c-0.6-0.8-1.4-1.1-2.5-1.1
		c-1.5,0-2.7,0.7-3.6,2.2c-0.9,1.5-1.4,3.1-1.5,5c-0.1,1.4,0.2,2.5,0.8,3.3C155.1,72.5,155.9,72.9,156.9,72.9"/>
	<polygon class="st0" points="177.1,74 175.7,74 171,62.1 168.3,74 166.9,74 170.1,60.1 172,60.1 176.4,71.2 178.9,60.1 180.3,60.1 
			"/>
	<polygon class="st0" points="182.8,74 185.9,60.1 194.6,60.1 194.3,61.5 187.3,61.5 186.3,66.1 192.2,66.1 191.9,67.4 186,67.4 
		184.8,72.5 192.3,72.5 192,74 	"/>
	<polygon class="st0" points="201.5,60.1 198.3,74 196.6,74 199.8,60.1 	"/>
	<path class="st0" d="M211.1,67.9H207l-1.4,6.1H204l3.2-13.9h4.3c1.3,0,2.3,0.1,2.9,0.4c0.6,0.3,1.1,0.7,1.5,1.3
		c0.3,0.6,0.5,1.2,0.4,2c-0.1,0.9-0.4,1.8-1,2.5c-0.6,0.7-1.4,1.2-2.4,1.3l1.6,6.4h-1.8L211.1,67.9z M207.4,66.5h3.2
		c2.6,0,3.9-0.9,4-2.8c0.1-1.5-0.9-2.3-2.9-2.3h-3.2L207.4,66.5z"/>
	<path class="st0" d="M226.8,69.9h-5.1l-2.2,4.1h-1.6l7.7-13.9h1.9l1.6,13.9h-1.8L226.8,69.9z M226.7,68.6l-0.7-6.4l-3.5,6.4H226.7z
		"/>
	<path class="st0" d="M244.4,63l-1.5,0.6c-0.2-0.8-0.6-1.4-1.2-1.8c-0.6-0.5-1.3-0.7-2.2-0.7c-1,0-1.8,0.2-2.3,0.7
		c-0.5,0.5-0.8,1.1-0.9,1.7c0,0.4,0.1,0.8,0.3,1.1c0.2,0.3,0.5,0.5,0.8,0.7c0.3,0.2,1,0.3,1.9,0.6c1.2,0.3,2.1,0.6,2.6,0.9
		c0.5,0.3,0.9,0.7,1.3,1.2c0.3,0.6,0.5,1.2,0.4,2c-0.1,1.3-0.6,2.4-1.6,3.2c-1,0.8-2.3,1.2-3.9,1.2c-3,0-4.8-1.3-5.4-3.9l1.5-0.5
		c0.5,2,1.8,3,4,3c1.2,0,2.1-0.3,2.7-0.8c0.6-0.6,1-1.2,1-1.9c0-0.4-0.1-0.8-0.3-1.2c-0.2-0.3-0.5-0.6-0.8-0.7
		c-0.3-0.2-0.9-0.3-1.7-0.5c-1.2-0.3-2.1-0.6-2.7-0.9c-0.6-0.3-1.1-0.7-1.5-1.3c-0.3-0.5-0.5-1.2-0.4-1.9c0.1-1.1,0.5-2,1.4-2.8
		c0.9-0.7,2-1.1,3.4-1.1C242,59.7,243.7,60.8,244.4,63"/>
</g>
</svg>
